# xmcd
#
# Track frame offsets:
#   150
#   10157
#   20327
#   37855
#   52145
#   63067
#
# Disc length: 1002 seconds
#
# Revision: 0
# Processed by: cddbd v1.5.2PL0 Copyright (c) Steve Scherf et al.
# Submitted via: uFREEDB ActiveX Control 1.5
#
DISCID=3e03e806
DTITLE=vera e Zuleika - rasqueado
DYEAR=1900
DGENRE=Children's Music
TTITLE0=moreninha cuiabana
TTITLE1=chpa  e cruz
TTITLE2=na casa de seu luiz
TTITLE3=pantanal solicidao
TTITLE4=pau fincado
TTITLE5=ala cuiabana
EXTD=
EXTT0=
EXTT1=
EXTT2=
EXTT3=
EXTT4=
EXTT5=
PLAYORDER=
